<svg xmlns="http://www.w3.org/2000/svg" viewBox="0 0 800 800"><defs><style>.cls-1{isolation:isolate;}.cls-2{fill:#316f48;}.cls-3{opacity:0.46;mix-blend-mode:darken;}.cls-4{fill:#1d1d1b;}.cls-5{fill:#fff;}</style></defs><g class="cls-1"><g id="Capa_3" data-name="Capa 3"><g id="Capa_6" data-name="Capa 6"><circle class="cls-2" cx="400" cy="400" r="400"/></g><g id="Capa_5" data-name="Capa 5"><g class="cls-3"><path class="cls-4" d="M799.66,416.51,556,154.77H245.47l68.24,70.94-1.21,49.94-64,65.92,62.75,63.09-35.11,144.7,226.3,237.39h0c166.17-43.91,290-192,297.2-370.24Z" transform="translate(0)"/></g><g id="Capa_7" data-name="Capa 7"><path class="cls-5" d="M400.72,342.87S248.5,428.72,248.5,493.7,400.72,645.45,400.72,645.45s-39.91-64.51-39.91-151.75S400.72,342.87,400.72,342.87Z" transform="translate(0)"/><path class="cls-5" d="M543.31,511.78c-25.72-31.62-134.16-13.59-134.16-13.59s45,15.59,79.5,58.06,40.29,89.2,40.29,89.2S569,543.4,543.31,511.78Z" transform="translate(0)"/><path class="cls-5" d="M245.47,154.77s141,43.23,155.25,120.88C415.23,198,556,154.77,556,154.77Z" transform="translate(0)"/><path class="cls-5" d="M470.87,258.55c-.11,35.43,82.76,83,82.76,83S532,306.32,532.12,258.74s22-82.19,22-82.19S471,223.11,470.87,258.55Z" transform="translate(0)"/><path class="cls-5" d="M331.27,258.55c.12,35.43-82.75,83-82.75,83s21.65-35.25,21.51-82.83-22-82.19-22-82.19S331.16,223.11,331.27,258.55Z" transform="translate(0)"/></g></g></g></g></svg>